# 3ds Max Wavefront OBJ Exporter v0.97b - (c)2007 guruware
# File Created: 19.11.2020 09:38:05

mtllib basic_box.mtl

#
# object Box001
#

v  84.1150 131.3162 86.8381
v  -88.9561 131.3162 86.8381
v  84.1150 131.3162 -86.2330
v  -88.9561 131.3162 -86.2330
v  84.1150 0.0000 86.8381
v  -88.9561 0.0000 86.8381
v  84.1150 0.0000 -86.2330
v  -88.9561 0.0000 -86.2330
# 8 vertices

vn 0.0000 -1.0000 -0.0000
vn 0.0000 0.0000 -1.0000
vn -1.0000 0.0000 -0.0000
vn 0.0000 0.0000 1.0000
vn 1.0000 0.0000 -0.0000
# 5 vertex normals

vt 1.0000 0.0000 0.0000
vt 0.0000 0.0000 0.0000
vt 1.0000 1.0000 0.0000
vt 0.0000 1.0000 0.0000
# 4 texture coords


#
# object Box002
#

v  30.4293 0.0000 -29.3427
v  64.6614 0.0000 -29.3427
v  64.6614 50.4923 -29.3427
v  30.4293 50.4923 -29.3427
v  64.6614 0.0000 -63.5748
v  64.6614 50.4923 -63.5748
v  30.4293 0.0000 -63.5748
v  30.4293 50.4923 -63.5748
# 8 vertices

vn 0.0000 0.0000 1.0000
vn 1.0000 0.0000 -0.0000
vn 0.0000 0.0000 -1.0000
vn -1.0000 0.0000 -0.0000
# 4 vertex normals

vt 0.0000 0.0000 0.0000
vt 1.0000 0.0000 0.0000
vt 1.0000 1.0000 0.0000
vt 0.0000 1.0000 0.0000
# 4 texture coords


#
# object Object001
#

v  30.4293 50.4923 -29.3427
v  64.6614 50.4923 -29.3427
v  64.6614 50.4923 -63.5748
v  30.4293 50.4923 -63.5748
# 4 vertices

vn 0.0000 1.0000 -0.0000
# 1 vertex normals

vt 0.0000 0.0000 0.0000
vt 1.0000 0.0000 0.0000
vt 1.0000 1.0000 0.0000
vt 0.0000 1.0000 0.0000
# 4 texture coords



v  45.9487 11.0799 18.7689
v  65.3124 22.4228 22.0912
v  68.5472 11.3784 40.9453
v  49.1836 0.0354 37.6230
v  34.0088 27.9655 30.7089
v  37.2436 16.9211 49.5629
v  56.6073 28.2640 52.8852
v  53.3724 39.3085 34.0311
# 8 vertices

vn 0.5000 -0.7071 -0.5000
vn -0.5000 0.7071 0.5000
vn -0.8536 -0.5000 -0.1464
vn 0.1464 -0.5000 0.8536
vn 0.8536 0.5000 0.1464
vn -0.1464 0.5000 -0.8536
# 6 vertex normals

vt 1.0000 0.0000 0.0000
vt 1.0000 1.0000 0.0000
vt 0.0000 1.0000 0.0000
vt 0.0000 0.0000 0.0000
# 4 texture coords


g Box003
usemtl cube2
s 2
f 21/13/11 22/14/11 23/15/11 
f 23/15/11 24/16/11 21/13/11 
s 4
f 25/16/12 26/13/12 27/14/12 
f 27/14/12 28/15/12 25/16/12 
s 8
f 21/16/13 24/13/13 26/14/13 
f 26/14/13 25/15/13 21/16/13 
s 16
f 24/16/14 23/13/14 27/14/14 
f 27/14/14 26/15/14 24/16/14 
s 32
f 23/16/15 22/13/15 28/14/15 
f 28/14/15 27/15/15 23/16/15 
s 64
f 22/16/16 21/13/16 25/14/16 
f 25/14/16 28/15/16 22/16/16 
# 12 faces
